HIERARCHY
ROOT Hips
{
	OFFSET 0.000000 0.000000 0.000000
	CHANNELS 6 Xposition Yposition Zposition Zrotation Yrotation Xrotation 
	JOINT LHipJoint
	{
		OFFSET 0.000000 0.000000 0.000000
		CHANNELS 3 Zrotation Yrotation Xrotation
		JOINT LeftUpLeg
		{
			OFFSET 1.363060 -1.794630 0.839290
			CHANNELS 3 Zrotation Yrotation Xrotation
			JOINT LeftLeg
			{
				OFFSET 2.448110 -6.726130 0.000000
				CHANNELS 3 Zrotation Yrotation Xrotation
				JOINT LeftFoot
				{
					OFFSET 2.562200 -7.039590 0.000000
					CHANNELS 3 Zrotation Yrotation Xrotation
					JOINT LeftToeBase
					{
						OFFSET 0.157640 -0.433110 2.322550
						CHANNELS 3 Zrotation Yrotation Xrotation
						End Site
						{
							OFFSET 0.000000 0.000000 0.000000
						}
					}
				}
			}
		}
	}
	JOINT RHipJoint
	{
		OFFSET 0.000000 0.000000 0.000000
		CHANNELS 3 Zrotation Yrotation Xrotation
		JOINT RightUpLeg
		{
			OFFSET -1.305520 -1.794630 0.839290
			CHANNELS 3 Zrotation Yrotation Xrotation
			JOINT RightLeg
			{
				OFFSET -2.542530 -6.985550 0.000000
				CHANNELS 3 Zrotation Yrotation Xrotation
				JOINT RightFoot
				{
					OFFSET -2.568260 -7.056230 0.000000
					CHANNELS 3 Zrotation Yrotation Xrotation
					JOINT RightToeBase
					{
						OFFSET -0.164730 -0.452590 2.363150
						CHANNELS 3 Zrotation Yrotation Xrotation
						End Site
						{
							OFFSET 0.000000 0.000000 0.000000
						}
					}
				}
			}
		}
	}
	JOINT LowerBack
	{
		OFFSET 0.000000 0.000000 0.000000
		CHANNELS 3 Zrotation Yrotation Xrotation
		JOINT Spine
		{
			OFFSET 0.028270 2.035590 -0.193380
			CHANNELS 3 Zrotation Yrotation Xrotation
			JOINT Spine1
			{
				OFFSET 0.056720 2.048850 -0.042750
				CHANNELS 3 Zrotation Yrotation Xrotation
				JOINT Neck
				{
					OFFSET 0.000000 0.000000 0.000000
					CHANNELS 3 Zrotation Yrotation Xrotation
					JOINT Neck1
					{
						OFFSET -0.054170 1.746240 0.172020
						CHANNELS 3 Zrotation Yrotation Xrotation
						JOINT Head
						{
							OFFSET 0.104070 1.761360 -0.123970
							CHANNELS 3 Zrotation Yrotation Xrotation
							End Site
							{
								OFFSET 0.000000 0.000000 0.000000
							}
						}
					}
				}
				JOINT LeftShoulder
				{
					OFFSET 0.000000 0.000000 0.000000
					CHANNELS 3 Zrotation Yrotation Xrotation
					JOINT LeftArm
					{
						OFFSET 3.362410 1.200890 -0.311210
						CHANNELS 3 Zrotation Yrotation Xrotation
						JOINT LeftForeArm
						{
							OFFSET 4.983000 -0.000000 -0.000000
							CHANNELS 3 Zrotation Yrotation Xrotation
							JOINT LeftHand
							{
								OFFSET 3.483560 -0.000000 -0.000000
								CHANNELS 3 Zrotation Yrotation Xrotation
								JOINT LeftFingerBase
								{
									OFFSET 0.000000 0.000000 0.000000
									CHANNELS 3 Zrotation Yrotation Xrotation
									JOINT LeftHandIndex1
									{
										OFFSET 0.715260 -0.000000 -0.000000
										CHANNELS 3 Zrotation Yrotation Xrotation
										End Site
										{
											OFFSET 0.000000 0.000000 0.000000
										}
									}
								}
								JOINT LThumb
								{
									OFFSET 0.000000 0.000000 0.000000
									CHANNELS 3 Zrotation Yrotation Xrotation
									End Site
									{
										OFFSET 0.000000 0.000000 0.000000
									}
								}
							}
						}
					}
				}
				JOINT RightShoulder
				{
					OFFSET 0.000000 0.000000 0.000000
					CHANNELS 3 Zrotation Yrotation Xrotation
					JOINT RightArm
					{
						OFFSET -3.136600 1.374050 -0.404650
						CHANNELS 3 Zrotation Yrotation Xrotation
						JOINT RightForeArm
						{
							OFFSET -5.241900 -0.000000 -0.000000
							CHANNELS 3 Zrotation Yrotation Xrotation
							JOINT RightHand
							{
								OFFSET -3.444170 -0.000000 -0.000000
								CHANNELS 3 Zrotation Yrotation Xrotation
								JOINT RightFingerBase
								{
									OFFSET 0.000000 0.000000 0.000000
									CHANNELS 3 Zrotation Yrotation Xrotation
									JOINT RightHandIndex1
									{
										OFFSET -0.622530 -0.000000 -0.000000
										CHANNELS 3 Zrotation Yrotation Xrotation
										End Site
										{
											OFFSET 0.000000 0.000000 0.000000
										}
									}
								}
								JOINT RThumb
								{
									OFFSET 0.000000 0.000000 0.000000
									CHANNELS 3 Zrotation Yrotation Xrotation
									End Site
									{
										OFFSET 0.000000 0.000000 0.000000
									}
								}
							}
						}
					}
				}
			}
		}
	}
}
MOTION
Frames: 4
Frame Time: 0.008333
-0.219031 23.832104 -0.664321 0.354986 -0.394556 5.653484 -5.752756 5.076020 5.318773 -10.609494 0.756606 -16.833872 0.866199 6.952639 17.769178 -2.402495 28.705798 35.612187 0.189039 2.793128 7.703807 1.372820 -5.810719 3.710224 15.773620 14.340917 -9.787617 -2.696483 -7.640294 22.345401 5.186816 -30.508280 28.799646 -0.026529 -1.050663 2.888142 3.301579 0.314571 4.155762 -0.968322 0.206621 6.372158 0.473438 0.459869 -8.807381 -6.535134 -0.284408 -18.959299 4.931909 0.727179 0.182523 3.013937 0.610330 2.473787 -5.693047 -0.828190 -0.167081 -34.947640 -1.059076 -18.720288 66.866022 -56.340499 -45.398390 0.089513 -1.715323 -14.698845 33.335847 18.091271 12.856381 -7.125000 0.000000 0.000000 5.604404 53.524174 1.177666 5.922148 1.138541 0.032664 34.949060 -1.089252 -11.344720 -53.071696 50.821392 -33.968125 0.568323 1.450178 14.381198 -35.212702 3.860936 -1.407450 7.125000 0.000000 0.000000 -6.796674 -27.532753 -2.904292
-0.247530 24.092122 -0.690431 0.474208 -0.352470 5.339616 -5.669673 4.988639 5.332637 -10.821057 0.974336 -17.096513 1.040712 7.294617 19.061796 -1.050910 25.946562 38.163546 0.082421 1.803350 4.963866 1.214584 -5.706076 3.732832 15.995355 14.585916 -10.235069 -3.033201 -8.150558 24.393646 3.698613 -27.006046 31.075607 -0.017047 -0.824969 2.267446 3.200958 0.319453 4.481949 -1.308189 0.222355 6.651229 0.525426 0.470288 -9.018273 -6.267996 -0.290222 -18.397361 5.132302 0.621772 0.250136 3.002348 0.555660 2.417581 -5.742865 -0.771270 -0.193753 -37.678781 -0.494714 -19.950914 64.058546 -55.665862 -42.697345 0.024858 -1.689254 -14.679302 33.416662 17.892884 12.765243 -7.125000 0.000000 0.000000 5.775003 53.257811 1.175963 6.084148 1.073620 -0.095298 36.333578 -2.124337 -13.243798 -48.844467 49.231436 -29.973148 0.615830 1.357272 14.784614 -35.058315 2.468825 -0.484891 7.125000 0.000000 0.000000 -6.838841 -29.110671 -2.663649
-0.268057 24.332158 -0.703948 0.692311 -0.358322 5.124275 -5.635003 4.928115 5.358227 -11.039163 0.986679 -17.125549 1.111762 7.459147 19.818752 -0.219787 23.964741 39.646277 0.007774 0.539069 1.481238 1.088415 -5.628075 3.753008 15.954263 14.885841 -10.544416 -3.215913 -8.472138 25.820623 2.494483 -23.922107 32.865717 -0.002576 0.112286 -0.308657 3.130622 0.351568 4.665809 -1.719138 0.266464 6.866173 0.537242 0.493230 -9.188138 -6.292455 -0.296441 -18.170717 5.584590 0.543742 0.819458 3.117348 0.522522 2.549752 -5.781025 -0.742241 -0.214269 -40.261802 0.049504 -20.916990 60.875586 -54.845905 -39.669220 -0.038204 -1.675226 -15.101242 33.594650 18.035868 12.935597 -7.125000 0.000000 0.000000 6.032390 53.414137 1.252810 6.274957 1.009128 -0.214196 37.641539 -3.007654 -15.091511 -44.750872 47.478621 -26.177257 0.707838 1.280701 14.948353 -35.574765 0.401568 0.961186 7.125000 0.000000 0.000000 -7.501587 -31.562413 -2.484273
-0.279080 24.554404 -0.705587 1.037507 -0.248117 4.969793 -5.660333 4.912991 5.405700 -11.275129 0.483865 -16.711165 1.065379 7.421007 19.948605 0.087598 22.790839 40.011848 0.000117 0.067681 0.185928 1.009455 -5.594645 3.784786 15.657420 15.130941 -10.613724 -3.248278 -8.604174 26.544242 1.789120 -21.706044 33.675529 -0.033410 1.154049 -3.173065 2.988707 0.319634 4.637660 -2.129906 0.204672 7.155096 0.625111 0.468028 -9.259040 -6.043885 -0.342451 -18.481153 5.750578 0.394434 2.005544 2.929043 0.469089 2.716300 -5.831398 -0.736407 -0.234859 -42.735358 0.573576 -21.681871 57.445987 -53.874651 -36.439293 -0.108985 -1.678795 -16.068613 34.281185 18.547681 13.595991 -7.125000 0.000000 0.000000 6.844151 54.121877 1.541355 6.467887 0.987305 -0.318198 38.740796 -3.476677 -17.025585 -40.687674 45.494078 -22.638674 0.764823 1.185717 15.205249 -34.290023 0.625377 0.693168 7.125000 0.000000 0.000000 -6.509949 -31.146757 -2.209224
